# xmcd
#
# Track frame offsets:
#	150
#	13560
#	27732
#	41932
#	58507
#	72920
#	87780
#	100282
#	117820
#	130730
#
# Disc length: 1912 seconds
#
# Revision: 7
# Processed by: cddbd v1.5.1PL0 Copyright (c) Steve Scherf et al.
# Submitted via: EasyCDDAExtractor 7.0.5.1
#
DISCID=8407760a
DTITLE=Doug Stone - From The Heart
DYEAR=1992
DGENRE=Country
TTITLE0=Warning Labels
TTITLE1=Made For Lovin' You
TTITLE2=Leave Me The Radio
TTITLE3=This Empty House
TTITLE4=Why Didn't I Think Of That
TTITLE5=Ain't Your Memory Got No Pride At All
TTITLE6=The Workin' End Of A Hoe
TTITLE7=Too Busy Being In Love
TTITLE8=She's Got A Future In the Movies
TTITLE9=Left, Leavin', Goin' Or Gone
EXTD=YEAR: 1992
EXTT0=
EXTT1=
EXTT2=
EXTT3=
EXTT4=
EXTT5=
EXTT6=
EXTT7=
EXTT8=
EXTT9=
PLAYORDER=
